<svg width="200" height="175" viewBox="0 0 200 175" fill="none" xmlns="http://www.w3.org/2000/svg">
<g id="Group 8">
<rect id="Rectangle" width="100" height="87.5" transform="matrix(1 0 0 -1 100 87.5)" fill="#2C6269"/>
<path id="Combined Shape Copy" fill-rule="evenodd" clip-rule="evenodd" d="M100 175C44.7715 175 0 135.825 0 87.5C0 39.1751 44.7715 0 100 0C155.228 0 200 39.1751 200 87.5C200 135.825 155.228 175 100 175ZM100 116.375C81.7746 116.375 67 103.447 67 87.5C67 71.5528 81.7746 58.625 100 58.625C118.225 58.625 133 71.5528 133 87.5C133 103.447 118.225 116.375 100 116.375Z" fill="#012F34"/>
<path id="Combined Shape" fill-rule="evenodd" clip-rule="evenodd" d="M100 49H200V52.5H100V49ZM100 56H200V59.5H100V56ZM200 63H100V66.5H200V63ZM100 70H200V73.5H100V70ZM200 77H100V80.5H200V77ZM100 84H200V87.5H100V84Z" fill="#79C8C7"/>
<path id="Combined Shape_2" fill-rule="evenodd" clip-rule="evenodd" d="M200 87.5H196V91H200V87.5ZM189 87.5H193V91H189V87.5ZM189 94.5H193V98H189V94.5ZM193 101.5H189V105H193V101.5ZM189 108.5H193V112H189V108.5ZM193 115.5H189V119H193V115.5ZM189 122.5H193V126H189V122.5ZM186 87.5H182V91H186V87.5ZM186 94.5H182V98H186V94.5ZM182 101.5H186V105H182V101.5ZM186 108.5H182V112H186V108.5ZM182 115.5H186V119H182V115.5ZM186 122.5H182V126H186V122.5ZM200 94.5H196V98H200V94.5ZM179 87.5H175V91H179V87.5ZM179 94.5H175V98H179V94.5ZM175 101.5H179V105H175V101.5ZM179 108.5H175V112H179V108.5ZM175 115.5H179V119H175V115.5ZM179 122.5H175V126H179V122.5ZM200 101.5H196V105H200V101.5ZM172 87.5H168V91H172V87.5ZM172 94.5H168V98H172V94.5ZM168 101.5H172V105H168V101.5ZM172 108.5H168V112H172V108.5ZM168 115.5H172V119H168V115.5ZM172 122.5H168V126H172V122.5ZM200 108.5H196V112H200V108.5ZM165 87.5H161V91H165V87.5ZM165 94.5H161V98H165V94.5ZM161 101.5H165V105H161V101.5ZM165 108.5H161V112H165V108.5ZM161 115.5H165V119H161V115.5ZM165 122.5H161V126H165V122.5ZM200 115.5H196V119H200V115.5ZM158 87.5H154V91H158V87.5ZM158 94.5H154V98H158V94.5ZM154 101.5H158V105H154V101.5ZM158 108.5H154V112H158V108.5ZM154 115.5H158V119H154V115.5ZM158 122.5H154V126H158V122.5ZM200 122.5H196V126H200V122.5ZM151 87.5H147V91H151V87.5ZM151 94.5H147V98H151V94.5ZM147 101.5H151V105H147V101.5ZM151 108.5H147V112H151V108.5ZM147 115.5H151V119H147V115.5ZM151 122.5H147V126H151V122.5Z" fill="#F67E7E"/>
</g>
</svg>
